<svg width="112" height="112" viewBox="0 0 112 112" fill="none" xmlns="http://www.w3.org/2000/svg">
<path d="M108.5 36.5452C108.5 27.545 104.323 19.7593 98.2327 15.9145C90.1898 10.6103 74.2787 6.99825 55.9597 7C34.874 6.99825 16.9873 11.781 10.6103 18.4187C6.2825 22.673 3.5 29.2058 3.5 36.547C3.5 40.8485 20.384 42.266 31.5648 40.8117C31.3968 41.1057 31.255 41.412 31.1062 41.7147C27.5747 46.3505 24.71 54.7715 22.8935 61.2045C15.869 66.8342 11.284 77.7472 11.284 77.7472V90.496C11.2807 92.3671 12.0208 94.1628 13.3414 95.4883C14.662 96.8138 16.4549 97.5605 18.326 97.5642H18.5972V97.9352C18.5945 99.806 19.3347 101.601 20.6552 102.926C21.9758 104.252 23.7685 104.998 25.6392 105.002H35.3623C36.2886 105 37.2056 104.816 38.0609 104.46C38.9161 104.104 39.6929 103.583 40.3468 102.927C41.0007 102.271 41.5189 101.492 41.872 100.636C42.225 99.7793 42.4059 98.8616 42.4043 97.9352V97.5625H69.5922V97.9335C69.5895 99.804 70.3295 101.599 71.6496 102.924C72.9698 104.249 74.762 104.996 76.6325 105H86.3555C87.2819 104.998 88.1989 104.814 89.0541 104.458C89.9094 104.102 90.6861 103.581 91.34 102.925C91.9939 102.269 92.5122 101.49 92.8652 100.634C93.2182 99.7775 93.3991 98.8599 93.3975 97.9335V97.5625H93.6688C94.5954 97.5609 95.5126 97.3768 96.368 97.0207C97.2235 96.6646 98.0004 96.1435 98.6545 95.4872C99.3086 94.8308 99.827 94.0521 100.18 93.1954C100.533 92.3387 100.714 91.4209 100.713 90.4942V77.7455C100.713 77.7455 96.1257 66.8307 89.1012 61.2028C87.3652 55.055 84.672 47.089 81.354 42.3465C81.1414 41.8314 80.9007 41.3284 80.633 40.8397C91.819 42.2485 108.5 40.8187 108.5 36.5452ZM55.9597 22.036C59.5892 22.036 63.0875 22.211 66.479 22.484C65.9417 23.4902 65.3678 24.416 64.89 24.7048C63.2048 25.7215 59.7993 26.355 56 26.355C52.2007 26.355 48.7935 25.7232 47.1082 24.7048C46.6305 24.4142 46.0547 23.4867 45.5192 22.477C48.9921 22.1905 52.4751 22.0434 55.9597 22.036ZM33.635 17.6383C34.0847 16.9418 35.3745 16.6425 36.7517 16.6425C38.304 16.6425 39.9683 17.0205 40.6665 17.6383C42.581 19.3218 44.0283 24.8867 46.2035 26.2027C48.3018 27.4715 52.15 28.105 56 28.105C59.85 28.105 63.6948 27.4715 65.7948 26.2027C67.9717 24.8867 69.419 19.3218 71.3318 17.6383C72.0318 17.0205 73.696 16.6425 75.2483 16.6425C76.6255 16.6425 77.917 16.94 78.3667 17.6383C80.4842 20.923 75.9185 28.511 71.6695 32.4975C67.2087 30.1455 61.7978 28.7962 56.252 28.7962C50.5995 28.7962 45.0468 30.198 40.4723 32.6357C36.1883 28.6895 31.4912 20.9615 33.635 17.6383ZM80.7258 44.604C81.515 47.558 81.2087 50.5068 80.0397 53.2402L74.7425 44.5952L72.4447 45.3705L77.5845 57.211C73.3372 62.2913 65.5918 65.8893 55.7882 65.8893C38.871 65.8893 28.2975 55.209 31.4125 44.6058C33.9238 36.064 44.8647 30.2698 56.259 30.2698C67.6533 30.2698 78.4403 36.0623 80.7258 44.604Z" fill="black"/>
<path d="M56.1575 37.9872C50.8357 37.9872 46.137 40.9237 45.6207 44.856C45.0502 49.168 49.658 52.9882 55.9597 52.9882C62.2597 52.9882 66.9655 49.1662 66.5105 44.856C66.0975 40.9237 61.474 37.9872 56.1575 37.9872Z" fill="black"/>
<path d="M53.1038 35.8767C54.7733 36.9582 57.5663 36.9582 59.2656 35.8767C60.9176 34.825 60.8371 33.1817 59.1676 32.2C57.5401 31.2462 54.9466 31.2462 53.2963 32.2C51.597 33.1817 51.478 34.825 53.1038 35.8767Z" fill="black"/>
<path d="M67.5325 39.669C70.0508 39.669 71.862 38.3512 71.5803 36.7797C71.3125 35.2677 69.1898 34.0847 66.8395 34.0847C64.4823 34.0847 62.6623 35.2712 62.7673 36.7797C62.8758 38.3512 65.0055 39.669 67.5325 39.669Z" fill="black"/>
<path d="M63.931 53.641C64.092 55.9545 66.7153 57.9093 69.8005 57.9093C72.87 57.9093 75.0155 55.9545 74.6025 53.641C74.2053 51.4325 71.603 49.7175 68.7803 49.7175C65.947 49.7175 63.7788 51.4343 63.931 53.641Z" fill="black"/>
<path d="M59.7556 54.9973C57.6328 53.382 54.2658 53.382 52.1063 54.9973C49.8698 56.665 49.6616 59.493 51.7738 61.3235C53.9683 63.2188 57.6783 63.2188 59.9166 61.3235C62.0831 59.493 61.9466 56.6633 59.7556 54.9973Z" fill="black"/>
<path d="M43.2214 49.7175C40.3917 49.7175 37.7474 51.4308 37.2924 53.641C36.8182 55.9493 38.9077 57.9093 41.9859 57.9093C45.0642 57.9093 47.7452 55.9493 47.9657 53.641C48.1739 51.4325 46.0494 49.7175 43.2214 49.7175Z" fill="black"/>
<path d="M42.0333 46.8387C44.1753 45.479 44.4833 43.3615 42.833 42.1032C41.2283 40.8835 38.2988 40.8835 36.1865 42.1032C34.0148 43.3615 33.446 45.479 35.0193 46.8387C36.6415 48.2405 39.8283 48.2405 42.0333 46.8387Z" fill="black"/>
<path d="M44.7352 39.669C47.2535 39.669 49.4287 38.3495 49.5757 36.7815C49.7227 35.2677 47.929 34.0847 45.577 34.0847C43.2215 34.0847 41.0742 35.2677 40.7645 36.7815C40.4407 38.3495 42.2117 39.669 44.7352 39.669Z" fill="black"/>
</svg>
