<svg width="339" height="69" viewBox="0 0 339 69" fill="none" xmlns="http://www.w3.org/2000/svg">
<path d="M200 23C204.411 23 208 25.912 208 29.492C208 30.925 207.445 32.215 206.285 33.486C204.607 35.418 200.854 37.771 200 38.131C199.17 38.481 199.266 37.934 199.304 37.718L199.307 37.7L199.421 37.015C199.448 36.811 199.476 36.494 199.395 36.292C199.305 36.069 198.951 35.953 198.691 35.897C194.846 35.39 192 32.701 192 29.492C192 25.912 195.59 23 200 23ZM197.022 30.686H195.497V27.918C195.497 27.8768 195.481 27.8373 195.452 27.808C195.423 27.7788 195.383 27.7623 195.342 27.762H194.78C194.76 27.762 194.739 27.766 194.72 27.7739C194.701 27.7817 194.684 27.7932 194.67 27.8077C194.655 27.8222 194.644 27.8394 194.636 27.8583C194.628 27.8772 194.624 27.8975 194.624 27.918V31.404C194.624 31.445 194.641 31.484 194.668 31.511V31.512L194.67 31.514L194.672 31.516C194.701 31.5439 194.74 31.5593 194.78 31.559H197.022C197.108 31.559 197.177 31.489 197.177 31.403V30.843C197.177 30.8225 197.173 30.8022 197.166 30.7832C197.158 30.7642 197.146 30.747 197.132 30.7324C197.118 30.7178 197.1 30.7062 197.082 30.6983C197.063 30.6903 197.042 30.6861 197.022 30.686ZM197.813 27.762C197.772 27.762 197.732 27.7784 197.703 27.8077C197.673 27.8369 197.657 27.8766 197.657 27.918V31.404C197.657 31.49 197.727 31.559 197.813 31.559H198.375C198.461 31.559 198.53 31.489 198.53 31.404V27.918C198.53 27.8768 198.514 27.8373 198.485 27.808C198.456 27.7788 198.416 27.7623 198.375 27.762H197.813ZM201.676 27.762C201.635 27.762 201.595 27.7784 201.566 27.8077C201.536 27.8369 201.52 27.8766 201.52 27.918V29.988L199.923 27.832C199.919 27.8268 199.915 27.8217 199.91 27.817V27.816C199.907 27.8125 199.904 27.8092 199.9 27.806L199.897 27.803C199.894 27.7997 199.89 27.7967 199.886 27.794H199.885L199.88 27.79L199.877 27.788C199.875 27.7868 199.874 27.7858 199.872 27.785L199.864 27.78H199.862L199.859 27.778L199.849 27.774L199.845 27.772C199.842 27.7708 199.838 27.7698 199.835 27.769H199.833L199.83 27.768L199.821 27.766H199.815L199.812 27.765H199.808L199.806 27.764H199.232C199.191 27.764 199.151 27.7803 199.122 27.8093C199.093 27.8384 199.076 27.8778 199.076 27.919V31.405C199.076 31.491 199.146 31.56 199.232 31.56H199.792C199.879 31.56 199.949 31.49 199.949 31.405V29.335L201.549 31.495C201.56 31.5099 201.573 31.5228 201.588 31.533L201.589 31.534L201.599 31.54L201.603 31.542C201.606 31.5435 201.608 31.5448 201.611 31.546L201.618 31.549L201.623 31.551C201.626 31.5521 201.63 31.5531 201.633 31.554H201.636C201.649 31.5577 201.662 31.5598 201.676 31.56H202.236C202.323 31.56 202.393 31.49 202.393 31.405V27.918C202.393 27.8766 202.377 27.8369 202.347 27.8077C202.318 27.7784 202.278 27.762 202.237 27.762H201.676ZM205.491 28.479V27.919C205.491 27.8985 205.487 27.8782 205.48 27.8592C205.472 27.8402 205.46 27.823 205.446 27.8084C205.432 27.7938 205.415 27.7822 205.396 27.7743C205.377 27.7663 205.356 27.7621 205.336 27.762H203.094C203.054 27.762 203.015 27.7778 202.986 27.806H202.985L202.984 27.808L202.982 27.811C202.954 27.8397 202.938 27.878 202.938 27.918V31.404C202.938 31.445 202.955 31.484 202.982 31.511L202.984 31.514L202.986 31.516C203.015 31.5438 203.054 31.5592 203.094 31.559H205.336C205.422 31.559 205.491 31.489 205.491 31.403V30.843C205.491 30.8225 205.487 30.8022 205.48 30.7832C205.472 30.7642 205.46 30.747 205.446 30.7324C205.432 30.7178 205.415 30.7062 205.396 30.6983C205.377 30.6903 205.356 30.6861 205.336 30.686H203.81V30.097H205.335C205.421 30.097 205.49 30.027 205.49 29.941V29.381C205.49 29.3605 205.486 29.3402 205.479 29.3212C205.471 29.3022 205.459 29.285 205.445 29.2704C205.431 29.2558 205.413 29.2442 205.395 29.2363C205.376 29.2283 205.355 29.2241 205.335 29.224H203.81V28.635H205.335C205.421 28.635 205.49 28.565 205.49 28.479H205.491Z" fill="#04D826"/>
<path d="M171 29.76C171 25.301 174.493 22 179 22C183.507 22 187 25.301 187 29.76C187 34.219 183.507 37.52 179 37.52C178.19 37.52 177.414 37.413 176.684 37.213C176.542 37.1736 176.392 37.1842 176.257 37.243L174.669 37.945C174.573 37.9873 174.468 38.0054 174.364 37.9977C174.259 37.99 174.158 37.9568 174.069 37.9009C173.981 37.845 173.907 37.7682 173.855 37.6772C173.803 37.5862 173.774 37.4838 173.771 37.379L173.727 35.956C173.724 35.8694 173.703 35.7843 173.666 35.7059C173.629 35.6275 173.577 35.5575 173.512 35.5C171.956 34.108 171 32.092 171 29.76ZM176.546 28.301L174.196 32.029C173.971 32.387 174.41 32.79 174.747 32.535L177.272 30.619C177.355 30.5559 177.456 30.5216 177.561 30.5212C177.665 30.5209 177.767 30.5545 177.85 30.617L179.719 32.019C179.852 32.1184 180.003 32.1893 180.165 32.2272C180.326 32.2651 180.494 32.2691 180.657 32.2391C180.82 32.209 180.975 32.1455 181.112 32.0525C181.249 31.9596 181.366 31.8392 181.454 31.699L183.804 27.971C184.03 27.613 183.59 27.21 183.253 27.465L180.728 29.381C180.645 29.4441 180.544 29.4784 180.439 29.4788C180.335 29.4791 180.233 29.4455 180.15 29.383L178.281 27.98C178.148 27.8806 177.997 27.8097 177.835 27.7718C177.674 27.7339 177.506 27.7299 177.343 27.7599C177.18 27.79 177.025 27.8535 176.888 27.9465C176.751 28.0394 176.634 28.1598 176.546 28.3V28.301Z" fill="#00C2FF"/>
<g clip-path="url(#clip0_171_1706)">
<path d="M146.117 39.0001C146.605 39.0001 147 38.6047 147 38.117V23.8831C147 23.3953 146.605 23 146.117 23H131.883C131.395 23 131 23.3953 131 23.8831V38.117C131 38.6047 131.395 39.0001 131.883 39.0001H146.117Z" fill="#395185"/>
<path d="M142.04 39.0001V32.804H144.12L144.431 30.3893H142.04V28.8476C142.04 28.1484 142.234 27.672 143.236 27.672L144.515 27.6714V25.5118C144.294 25.4823 143.535 25.4166 142.652 25.4166C140.808 25.4166 139.546 26.5419 139.546 28.6085V30.3893H137.461V32.804H139.546V39.0001H142.04Z" fill="white"/>
</g>
<path d="M168 24.894C167.411 25.2153 166.779 25.4324 166.115 25.5301C166.792 25.0302 167.313 24.2386 167.558 23.2954C166.914 23.7659 166.209 24.0974 165.474 24.2756C164.875 23.4906 164.022 23 163.077 23C161.265 23 159.795 24.8085 159.795 27.0391C159.795 27.3557 159.824 27.664 159.88 27.9597C157.152 27.7912 154.733 26.1831 153.114 23.7394C152.831 24.3359 152.669 25.0299 152.669 25.77C152.669 27.1714 153.249 28.4077 154.13 29.132C153.608 29.1119 153.099 28.9387 152.643 28.6268C152.643 28.6437 152.643 28.6606 152.643 28.6776C152.643 30.6346 153.774 32.2672 155.276 32.6383C154.792 32.8 154.285 32.8237 153.793 32.7075C154.211 34.3122 155.423 35.4799 156.86 35.5126C155.736 36.5959 154.321 37.2417 152.783 37.2417C152.518 37.2417 152.257 37.2225 152 37.1852C153.453 38.3313 155.178 39 157.032 39C163.07 39 166.372 32.8451 166.372 27.5075C166.372 27.3323 166.368 27.1582 166.362 26.985C167.005 26.4133 167.559 25.7053 168 24.894Z" fill="#55ACEE"/>
<path d="M152.898 7.29834C152.884 7.62777 152.833 7.95898 152.748 8.29199C152.662 8.62142 152.533 8.92399 152.361 9.19971C152.189 9.47542 151.965 9.69743 151.689 9.86572C151.417 10.0304 151.088 10.1128 150.701 10.1128C150.454 10.1128 150.237 10.0698 150.051 9.98389C149.869 9.89437 149.718 9.76725 149.6 9.60254C149.486 9.43783 149.405 9.2391 149.358 9.00635C149.315 8.7736 149.308 8.514 149.337 8.22754L149.611 5.25195H150.4L150.126 8.22754C150.105 8.48893 150.11 8.70199 150.143 8.8667C150.178 9.03141 150.232 9.15853 150.304 9.24805C150.375 9.33398 150.456 9.39307 150.545 9.42529C150.639 9.45752 150.728 9.47363 150.814 9.47363C151.029 9.47363 151.22 9.41813 151.389 9.30713C151.557 9.19255 151.698 9.03678 151.813 8.83984C151.931 8.63932 152.022 8.40837 152.087 8.14697C152.151 7.882 152.191 7.59912 152.205 7.29834C152.23 6.76481 152.205 6.27425 152.13 5.82666C152.058 5.37907 151.935 4.98161 151.759 4.63428C151.587 4.28695 151.362 3.99333 151.083 3.75342C150.803 3.51351 150.47 3.33089 150.083 3.20557C149.697 3.08024 149.255 3.01758 148.757 3.01758C148.306 3.01758 147.889 3.0874 147.505 3.22705C147.126 3.36312 146.784 3.56006 146.479 3.81787C146.179 4.07568 145.919 4.38542 145.701 4.74707C145.486 5.10872 145.316 5.51693 145.19 5.97168C145.069 6.42285 144.997 6.90983 144.976 7.43262C144.951 7.96973 144.979 8.46387 145.062 8.91504C145.144 9.36263 145.276 9.76188 145.459 10.1128C145.645 10.4673 145.88 10.7663 146.163 11.0098C146.445 11.2568 146.773 11.443 147.146 11.5684C147.518 11.6973 147.933 11.7617 148.392 11.7617C148.707 11.7617 149.025 11.7241 149.348 11.6489C149.674 11.5737 149.946 11.4717 150.164 11.3428L150.368 11.9551C150.118 12.1162 149.804 12.2362 149.428 12.3149C149.056 12.3937 148.703 12.4331 148.37 12.4331C147.826 12.4331 147.328 12.3579 146.877 12.2075C146.429 12.0607 146.032 11.8441 145.685 11.5576C145.341 11.2747 145.054 10.9292 144.825 10.521C144.596 10.1164 144.428 9.65446 144.32 9.13525C144.213 8.61605 144.172 8.0485 144.197 7.43262C144.222 6.84538 144.31 6.29215 144.46 5.77295C144.614 5.25374 144.823 4.78288 145.088 4.36035C145.353 3.93783 145.668 3.57438 146.034 3.27002C146.403 2.96208 146.816 2.72575 147.274 2.56104C147.736 2.39632 148.238 2.31396 148.778 2.31396C149.33 2.31396 149.829 2.38916 150.277 2.53955C150.724 2.68994 151.117 2.90658 151.453 3.18945C151.793 3.47233 152.074 3.81787 152.296 4.22607C152.518 4.63428 152.68 5.09619 152.78 5.61182C152.884 6.12744 152.923 6.68962 152.898 7.29834ZM147.382 7.75488C147.357 8.00553 147.357 8.22933 147.382 8.42627C147.407 8.62321 147.455 8.78971 147.527 8.92578C147.598 9.06185 147.692 9.16569 147.806 9.2373C147.924 9.30534 148.062 9.33936 148.22 9.33936C148.324 9.33936 148.433 9.31429 148.547 9.26416C148.662 9.21045 148.775 9.12809 148.886 9.01709C148.997 8.90609 149.101 8.76107 149.197 8.58203C149.294 8.40299 149.375 8.18815 149.439 7.9375L149.793 8.32422C149.711 8.61784 149.604 8.87565 149.471 9.09766C149.342 9.31966 149.197 9.50586 149.036 9.65625C148.875 9.80664 148.703 9.92122 148.521 10C148.341 10.0752 148.159 10.1128 147.973 10.1128C147.711 10.1128 147.482 10.0573 147.285 9.94629C147.088 9.83171 146.929 9.67057 146.807 9.46289C146.685 9.25521 146.599 9.00814 146.549 8.72168C146.503 8.43164 146.496 8.10938 146.528 7.75488C146.56 7.37891 146.626 7.03158 146.727 6.71289C146.827 6.39421 146.95 6.10954 147.097 5.85889C147.248 5.60824 147.416 5.39518 147.602 5.21973C147.792 5.04427 147.992 4.91178 148.204 4.82227C148.415 4.72917 148.632 4.68262 148.854 4.68262C149.24 4.68262 149.545 4.73991 149.767 4.85449C149.989 4.96549 150.2 5.09798 150.4 5.25195L149.944 5.78369C149.84 5.68343 149.704 5.59033 149.536 5.50439C149.367 5.41846 149.169 5.37549 148.939 5.37549C148.743 5.37549 148.558 5.42562 148.386 5.52588C148.214 5.62614 148.059 5.77653 147.919 5.97705C147.783 6.17757 147.668 6.42643 147.575 6.72363C147.482 7.01725 147.418 7.361 147.382 7.75488ZM159.085 7.51318H160.117C160.063 8.00732 159.922 8.44954 159.692 8.83984C159.463 9.23014 159.139 9.53988 158.72 9.76904C158.301 9.99463 157.778 10.1074 157.152 10.1074C156.694 10.1074 156.276 10.0215 155.9 9.84961C155.528 9.67773 155.208 9.43424 154.939 9.11914C154.67 8.80046 154.463 8.41911 154.316 7.9751C154.173 7.52751 154.101 7.02979 154.101 6.48193V5.70312C154.101 5.15527 154.173 4.65934 154.316 4.21533C154.463 3.76774 154.672 3.3846 154.944 3.06592C155.22 2.74723 155.551 2.50195 155.938 2.33008C156.325 2.1582 156.76 2.07227 157.243 2.07227C157.834 2.07227 158.333 2.18327 158.742 2.40527C159.15 2.62728 159.467 2.93522 159.692 3.3291C159.922 3.7194 160.063 4.17236 160.117 4.68799H159.085C159.035 4.32275 158.942 4.00944 158.806 3.74805C158.67 3.48307 158.477 3.27897 158.226 3.13574C157.975 2.99251 157.648 2.9209 157.243 2.9209C156.896 2.9209 156.59 2.98714 156.325 3.11963C156.063 3.25212 155.843 3.4401 155.664 3.68359C155.489 3.92708 155.356 4.21891 155.267 4.55908C155.177 4.89925 155.132 5.27702 155.132 5.69238V6.48193C155.132 6.86507 155.172 7.22493 155.25 7.56152C155.333 7.89811 155.456 8.19352 155.621 8.44775C155.786 8.70199 155.995 8.90251 156.25 9.04932C156.504 9.19255 156.805 9.26416 157.152 9.26416C157.592 9.26416 157.943 9.19434 158.205 9.05469C158.466 8.91504 158.663 8.71452 158.795 8.45312C158.931 8.19173 159.028 7.87842 159.085 7.51318ZM161.116 7.15869V7.03516C161.116 6.61621 161.177 6.2277 161.298 5.86963C161.42 5.50798 161.596 5.19466 161.825 4.92969C162.054 4.66113 162.331 4.45345 162.657 4.30664C162.983 4.15625 163.348 4.08105 163.753 4.08105C164.161 4.08105 164.528 4.15625 164.854 4.30664C165.183 4.45345 165.463 4.66113 165.692 4.92969C165.925 5.19466 166.102 5.50798 166.224 5.86963C166.345 6.2277 166.406 6.61621 166.406 7.03516V7.15869C166.406 7.57764 166.345 7.96615 166.224 8.32422C166.102 8.68229 165.925 8.99561 165.692 9.26416C165.463 9.52913 165.185 9.73682 164.859 9.88721C164.537 10.034 164.172 10.1074 163.764 10.1074C163.355 10.1074 162.988 10.034 162.663 9.88721C162.337 9.73682 162.057 9.52913 161.825 9.26416C161.596 8.99561 161.42 8.68229 161.298 8.32422C161.177 7.96615 161.116 7.57764 161.116 7.15869ZM162.109 7.03516V7.15869C162.109 7.44873 162.143 7.72266 162.211 7.98047C162.279 8.2347 162.382 8.46029 162.518 8.65723C162.657 8.85417 162.831 9.00993 163.039 9.12451C163.246 9.23551 163.488 9.29102 163.764 9.29102C164.036 9.29102 164.274 9.23551 164.478 9.12451C164.686 9.00993 164.858 8.85417 164.994 8.65723C165.13 8.46029 165.232 8.2347 165.3 7.98047C165.371 7.72266 165.407 7.44873 165.407 7.15869V7.03516C165.407 6.7487 165.371 6.47835 165.3 6.22412C165.232 5.96631 165.128 5.73893 164.988 5.54199C164.852 5.34147 164.68 5.18392 164.473 5.06934C164.269 4.95475 164.029 4.89746 163.753 4.89746C163.481 4.89746 163.241 4.95475 163.033 5.06934C162.829 5.18392 162.657 5.34147 162.518 5.54199C162.382 5.73893 162.279 5.96631 162.211 6.22412C162.143 6.47835 162.109 6.7487 162.109 7.03516ZM168.646 5.4292V10H167.652V4.18848H168.592L168.646 5.4292ZM168.41 6.87402L167.996 6.85791C168 6.46045 168.059 6.09342 168.173 5.75684C168.288 5.41667 168.449 5.12126 168.657 4.87061C168.864 4.61995 169.111 4.4266 169.398 4.29053C169.688 4.15088 170.008 4.08105 170.359 4.08105C170.646 4.08105 170.904 4.12044 171.133 4.19922C171.362 4.27441 171.557 4.39616 171.718 4.56445C171.883 4.73275 172.008 4.95117 172.094 5.21973C172.18 5.4847 172.223 5.80876 172.223 6.19189V10H171.224V6.18115C171.224 5.87679 171.179 5.6333 171.09 5.45068C171 5.26449 170.87 5.13021 170.698 5.04785C170.526 4.96191 170.315 4.91895 170.064 4.91895C169.817 4.91895 169.591 4.97087 169.387 5.07471C169.187 5.17855 169.013 5.32178 168.866 5.50439C168.723 5.68701 168.61 5.89648 168.528 6.13281C168.449 6.36556 168.41 6.61263 168.41 6.87402ZM176.166 4.18848V4.95117H173.023V4.18848H176.166ZM174.087 2.77588H175.081V8.56055C175.081 8.75749 175.111 8.90609 175.172 9.00635C175.233 9.10661 175.312 9.17285 175.408 9.20508C175.505 9.2373 175.609 9.25342 175.72 9.25342C175.802 9.25342 175.888 9.24626 175.978 9.23193C176.071 9.21403 176.14 9.19971 176.187 9.18896L176.192 10C176.114 10.0251 176.01 10.0483 175.881 10.0698C175.756 10.0949 175.603 10.1074 175.424 10.1074C175.181 10.1074 174.957 10.0591 174.753 9.9624C174.549 9.86572 174.386 9.70459 174.264 9.479C174.146 9.24984 174.087 8.94189 174.087 8.55518V2.77588ZM178.325 5.10156V10H177.331V4.18848H178.298L178.325 5.10156ZM180.14 4.15625L180.135 5.08008C180.052 5.06217 179.974 5.05143 179.898 5.04785C179.827 5.04069 179.744 5.03711 179.651 5.03711C179.422 5.03711 179.22 5.07292 179.044 5.14453C178.869 5.21615 178.72 5.31641 178.599 5.44531C178.477 5.57422 178.38 5.72819 178.309 5.90723C178.241 6.08268 178.196 6.27604 178.174 6.4873L177.895 6.64844C177.895 6.29753 177.929 5.9681 177.997 5.66016C178.069 5.35221 178.178 5.08008 178.325 4.84375C178.472 4.60384 178.658 4.41764 178.883 4.28516C179.112 4.14909 179.385 4.08105 179.7 4.08105C179.771 4.08105 179.854 4.09001 179.947 4.10791C180.04 4.12223 180.104 4.13835 180.14 4.15625ZM184.271 9.00635V6.01465C184.271 5.78548 184.224 5.58675 184.131 5.41846C184.041 5.24658 183.905 5.1141 183.723 5.021C183.54 4.9279 183.314 4.88135 183.046 4.88135C182.795 4.88135 182.575 4.92432 182.385 5.01025C182.199 5.09619 182.052 5.20898 181.945 5.34863C181.841 5.48828 181.789 5.63867 181.789 5.7998H180.795C180.795 5.59212 180.849 5.38623 180.957 5.18213C181.064 4.97803 181.218 4.79362 181.418 4.62891C181.623 4.46061 181.866 4.32812 182.149 4.23145C182.435 4.13118 182.754 4.08105 183.105 4.08105C183.528 4.08105 183.9 4.15267 184.222 4.2959C184.548 4.43913 184.802 4.65576 184.985 4.9458C185.171 5.23226 185.264 5.59212 185.264 6.02539V8.73242C185.264 8.92578 185.28 9.13167 185.312 9.3501C185.348 9.56852 185.4 9.75651 185.468 9.91406V10H184.432C184.382 9.88542 184.342 9.73324 184.313 9.54346C184.285 9.3501 184.271 9.17106 184.271 9.00635ZM184.442 6.47656L184.453 7.1748H183.449C183.166 7.1748 182.913 7.19808 182.691 7.24463C182.469 7.2876 182.283 7.35384 182.133 7.44336C181.982 7.53288 181.868 7.64567 181.789 7.78174C181.71 7.91423 181.671 8.06999 181.671 8.24902C181.671 8.43164 181.712 8.59814 181.794 8.74854C181.877 8.89893 182 9.01888 182.165 9.1084C182.333 9.19434 182.539 9.2373 182.783 9.2373C183.087 9.2373 183.356 9.17285 183.588 9.04395C183.821 8.91504 184.006 8.75749 184.142 8.57129C184.281 8.38509 184.356 8.20426 184.367 8.02881L184.792 8.50684C184.766 8.65723 184.698 8.82373 184.587 9.00635C184.476 9.18896 184.328 9.36442 184.142 9.53271C183.959 9.69743 183.741 9.83529 183.486 9.94629C183.236 10.0537 182.953 10.1074 182.638 10.1074C182.244 10.1074 181.898 10.0304 181.601 9.87646C181.307 9.72249 181.078 9.5166 180.914 9.25879C180.752 8.9974 180.672 8.70557 180.672 8.3833C180.672 8.07178 180.733 7.79785 180.854 7.56152C180.976 7.32161 181.152 7.12288 181.381 6.96533C181.61 6.8042 181.886 6.68245 182.208 6.6001C182.53 6.51774 182.89 6.47656 183.288 6.47656H184.442ZM189.153 9.29102C189.389 9.29102 189.608 9.24268 189.808 9.146C190.009 9.04932 190.173 8.91683 190.302 8.74854C190.431 8.57666 190.505 8.38151 190.522 8.16309H191.468C191.45 8.50684 191.333 8.82731 191.119 9.12451C190.907 9.41813 190.63 9.65625 190.286 9.83887C189.942 10.0179 189.565 10.1074 189.153 10.1074C188.716 10.1074 188.335 10.0304 188.009 9.87646C187.687 9.72249 187.418 9.51123 187.203 9.24268C186.992 8.97412 186.833 8.66618 186.725 8.31885C186.621 7.96794 186.569 7.59733 186.569 7.20703V6.98145C186.569 6.59115 186.621 6.22233 186.725 5.875C186.833 5.52409 186.992 5.21436 187.203 4.9458C187.418 4.67725 187.687 4.46598 188.009 4.31201C188.335 4.15804 188.716 4.08105 189.153 4.08105C189.608 4.08105 190.005 4.17415 190.345 4.36035C190.685 4.54297 190.952 4.79362 191.146 5.1123C191.342 5.42741 191.45 5.78548 191.468 6.18652H190.522C190.505 5.94661 190.437 5.72998 190.318 5.53662C190.204 5.34326 190.046 5.18929 189.846 5.07471C189.649 4.95654 189.418 4.89746 189.153 4.89746C188.848 4.89746 188.592 4.95833 188.385 5.08008C188.181 5.19824 188.018 5.35938 187.896 5.56348C187.778 5.764 187.692 5.98779 187.638 6.23486C187.588 6.47835 187.563 6.72721 187.563 6.98145V7.20703C187.563 7.46126 187.588 7.71191 187.638 7.95898C187.688 8.20605 187.772 8.42985 187.891 8.63037C188.012 8.83089 188.175 8.99202 188.379 9.11377C188.587 9.23193 188.845 9.29102 189.153 9.29102ZM195.018 4.18848V4.95117H191.876V4.18848H195.018ZM192.939 2.77588H193.933V8.56055C193.933 8.75749 193.964 8.90609 194.024 9.00635C194.085 9.10661 194.164 9.17285 194.261 9.20508C194.357 9.2373 194.461 9.25342 194.572 9.25342C194.655 9.25342 194.741 9.24626 194.83 9.23193C194.923 9.21403 194.993 9.19971 195.04 9.18896L195.045 10C194.966 10.0251 194.862 10.0483 194.733 10.0698C194.608 10.0949 194.456 10.1074 194.277 10.1074C194.033 10.1074 193.81 10.0591 193.605 9.9624C193.401 9.86572 193.238 9.70459 193.117 9.479C192.999 9.24984 192.939 8.94189 192.939 8.55518V2.77588Z" fill="black"/>
<defs>
<clipPath id="clip0_171_1706">
<rect width="16" height="16" fill="white" transform="translate(131 23)"/>
</clipPath>
</defs>
</svg>
