<svg width="324" height="129" viewBox="0 0 324 129" fill="none" xmlns="http://www.w3.org/2000/svg">
<g clip-path="url(#clip0_171_3148)">
<path d="M107.192 31.0291C107.192 27.3942 108.636 23.9082 111.207 21.3379C113.777 18.7677 117.263 17.3237 120.898 17.3237H203.13C206.765 17.3237 210.251 18.7677 212.821 21.3379C215.391 23.9082 216.835 27.3942 216.835 31.0291V99.5557C216.835 103.191 215.391 106.677 212.821 109.247C210.251 111.817 206.765 113.261 203.13 113.261H120.898C117.263 113.261 113.777 111.817 111.207 109.247C108.636 106.677 107.192 103.191 107.192 99.5557V31.0291ZM114.045 92.703V99.5557C114.045 101.373 114.767 103.116 116.052 104.401C117.337 105.686 119.08 106.408 120.898 106.408H203.13C204.947 106.408 206.69 105.686 207.975 104.401C209.26 103.116 209.982 101.373 209.982 99.5557V75.5714L184.1 62.2292C183.457 61.9073 182.73 61.7956 182.02 61.91C181.31 62.0244 180.655 62.359 180.146 62.8665L154.722 88.2899L136.494 76.147C135.836 75.7088 135.047 75.5117 134.26 75.5892C133.473 75.6666 132.737 76.0138 132.177 76.5718L114.045 92.703ZM148.308 48.1607C148.308 45.4345 147.225 42.82 145.298 40.8924C143.37 38.9647 140.756 37.8817 138.029 37.8817C135.303 37.8817 132.689 38.9647 130.761 40.8924C128.833 42.82 127.75 45.4345 127.75 48.1607C127.75 50.8869 128.833 53.5014 130.761 55.4291C132.689 57.3567 135.303 58.4397 138.029 58.4397C140.756 58.4397 143.37 57.3567 145.298 55.4291C147.225 53.5014 148.308 50.8869 148.308 48.1607Z" fill="#C0C0C0"/>
<path d="M158.766 50.6323C158.938 50.6323 159.102 50.7005 159.224 50.8218C159.345 50.9431 159.413 51.1076 159.413 51.2791V53.8662C159.413 54.0377 159.345 54.2022 159.224 54.3235C159.102 54.4448 158.938 54.5129 158.766 54.5129C158.595 54.5129 158.43 54.4448 158.309 54.3235C158.188 54.2022 158.12 54.0377 158.12 53.8662V51.2791C158.12 51.1076 158.188 50.9431 158.309 50.8218C158.43 50.7005 158.595 50.6323 158.766 50.6323ZM153.734 52.7149C153.795 52.6547 153.866 52.6069 153.944 52.5743C154.023 52.5417 154.107 52.5249 154.192 52.5249C154.277 52.5249 154.362 52.5417 154.44 52.5743C154.519 52.6069 154.59 52.6547 154.65 52.7149L156.479 54.5453C156.541 54.6049 156.59 54.6763 156.624 54.7552C156.658 54.8341 156.676 54.919 156.677 55.0049C156.678 55.0907 156.661 55.1759 156.629 55.2554C156.596 55.3349 156.548 55.4071 156.487 55.4678C156.427 55.5285 156.354 55.5766 156.275 55.6091C156.195 55.6416 156.11 55.658 156.024 55.6572C155.939 55.6565 155.854 55.6386 155.775 55.6047C155.696 55.5708 155.624 55.5216 155.565 55.4598L153.736 53.6307C153.614 53.5095 153.546 53.345 153.546 53.1735C153.546 53.002 153.614 52.8375 153.736 52.7162L153.734 52.7149ZM163.798 52.7149C163.858 52.775 163.906 52.8464 163.939 52.9249C163.971 53.0035 163.988 53.0878 163.988 53.1728C163.988 53.2579 163.971 53.3421 163.939 53.4207C163.906 53.4993 163.858 53.5707 163.798 53.6307L161.967 55.4598C161.907 55.5216 161.835 55.5708 161.757 55.6047C161.678 55.6386 161.593 55.6565 161.507 55.6572C161.421 55.658 161.336 55.6416 161.256 55.6091C161.177 55.5766 161.105 55.5285 161.044 55.4678C160.983 55.4071 160.935 55.3349 160.903 55.2554C160.87 55.1759 160.854 55.0907 160.855 55.0049C160.855 54.919 160.873 54.8341 160.907 54.7552C160.941 54.6763 160.99 54.6049 161.052 54.5453L162.881 52.7162C163.002 52.595 163.167 52.5268 163.338 52.5268C163.51 52.5268 163.674 52.595 163.796 52.7162L163.798 52.7149ZM151.652 57.7468C151.652 57.5752 151.72 57.4107 151.841 57.2894C151.963 57.1681 152.127 57.1 152.299 57.1H154.886C155.057 57.1 155.222 57.1681 155.343 57.2894C155.464 57.4107 155.532 57.5752 155.532 57.7468C155.532 57.9183 155.464 58.0828 155.343 58.2041C155.222 58.3254 155.057 58.3935 154.886 58.3935H152.299C152.127 58.3935 151.963 58.3254 151.841 58.2041C151.72 58.0828 151.652 57.9183 151.652 57.7468ZM158.766 58.4349V70.4131C158.766 70.5412 158.804 70.6664 158.875 70.773C158.946 70.8796 159.047 70.9627 159.165 71.0117C159.284 71.0608 159.414 71.0736 159.54 71.0485C159.665 71.0235 159.781 70.9617 159.871 70.871L163.182 67.5595C163.667 67.0743 164.325 66.8017 165.011 66.8015H169.192C169.326 66.8014 169.457 66.7595 169.567 66.6817C169.676 66.6038 169.759 66.4939 169.803 66.3671C169.847 66.2403 169.85 66.1029 169.813 65.974C169.775 65.8451 169.698 65.731 169.593 65.6477L159.814 57.9266C159.719 57.8512 159.604 57.8042 159.483 57.7911C159.362 57.7779 159.24 57.7991 159.131 57.8521C159.021 57.9052 158.929 57.988 158.865 58.0911C158.8 58.1942 158.766 58.3134 158.766 58.4349Z" fill="#333131"/>
</g>
<rect width="324" height="128.738" rx="64.3688" fill="#C4C4C4" fill-opacity="0.5"/>
<defs>
<clipPath id="clip0_171_3148">
<rect width="109.643" height="109.643" fill="white" transform="translate(107.179 10.4712)"/>
</clipPath>
</defs>
</svg>
