<svg width="142" height="142" viewBox="0 0 142 142" fill="none" xmlns="http://www.w3.org/2000/svg">
<path d="M71 8.59998C36.537 8.59998 8.59998 36.537 8.59998 71C8.59998 105.463 36.537 133.4 71 133.4C105.463 133.4 133.4 105.463 133.4 71C133.4 36.537 105.463 8.59998 71 8.59998ZM96.3825 59.716C96.4085 60.249 96.415 60.782 96.415 61.302C96.415 77.552 84.0585 96.2785 61.4515 96.2785C54.7714 96.2896 48.2303 94.371 42.6145 90.7535C43.57 90.8705 44.5515 90.916 45.546 90.916C51.305 90.916 56.6025 88.9595 60.808 85.6575C58.2451 85.6071 55.7618 84.7585 53.7042 83.2298C51.6466 81.7012 50.1171 79.5686 49.329 77.1295C51.1695 77.4795 53.0655 77.4061 54.8735 76.915C52.0918 76.3525 49.5903 74.8452 47.7931 72.6488C45.9959 70.4524 45.0137 67.702 45.013 64.864V64.7145C46.6705 65.631 48.5685 66.19 50.5835 66.255C47.9757 64.519 46.1296 61.8523 45.4228 58.8003C44.716 55.7483 45.2018 52.5416 46.781 49.836C49.8682 53.632 53.7182 56.7373 58.0817 58.951C62.4452 61.1647 67.2249 62.4373 72.1115 62.6865C71.4902 60.0495 71.7576 57.2811 72.872 54.8118C73.9865 52.3424 75.8855 50.3104 78.2739 49.0317C80.6624 47.753 83.4063 47.2992 86.0793 47.7408C88.7522 48.1825 91.2044 49.4949 93.0545 51.474C95.8051 50.9298 98.4428 49.9208 100.854 48.4905C99.9377 51.3383 98.0184 53.7566 95.453 55.296C97.8895 55.0025 100.269 54.3475 102.512 53.3525C100.864 55.8218 98.7884 57.9768 96.3825 59.716Z" fill="#55ACEE"/>
</svg>
